<svg width="31" height="31" viewBox="0 0 31 31" fill="none" xmlns="http://www.w3.org/2000/svg">
<g clip-path="url(#clip0_160_2138)">
<path d="M21.7652 0H9.23536C4.14286 0 0 4.14286 0 9.23536V21.7652C0 26.8577 4.14286 31.0006 9.23536 31.0006H21.7652C26.8577 31.0006 31.0006 26.8577 31.0006 21.7652V9.23536C31.0006 4.14286 26.8577 0 21.7652 0ZM27.8816 21.7652C27.8816 25.143 25.143 27.8816 21.7652 27.8816H9.23536C5.85761 27.8816 3.11896 25.143 3.11896 21.7652V9.23536C3.11896 5.85705 5.85761 3.11896 9.23536 3.11896H21.7652C25.143 3.11896 27.8816 5.85761 27.8816 9.23536V21.7652Z" fill="white"/>
<path d="M15.5015 7.4812C11.0807 7.4812 7.48358 11.0778 7.48358 15.4991C7.48358 19.9205 11.0802 23.5171 15.5015 23.5171C19.9228 23.5171 23.5194 19.9205 23.5194 15.4991C23.5194 11.0778 19.9228 7.4812 15.5015 7.4812ZM15.5015 20.3981C12.7955 20.3981 10.6025 18.2046 10.6025 15.4991C10.6025 12.7937 12.7961 10.6002 15.5015 10.6002C18.207 10.6002 20.4005 12.7937 20.4005 15.4991C20.4005 18.2046 18.207 20.3981 15.5015 20.3981Z" fill="white"/>
<path d="M23.534 9.46366C24.5951 9.46366 25.4552 8.6035 25.4552 7.54244C25.4552 6.48138 24.5951 5.62122 23.534 5.62122C22.473 5.62122 21.6128 6.48138 21.6128 7.54244C21.6128 8.6035 22.473 9.46366 23.534 9.46366Z" fill="white"/>
</g>
<defs>
<clipPath id="clip0_160_2138">
<rect width="31" height="31" fill="white"/>
</clipPath>
</defs>
</svg>
